# Blender v3.2.0 OBJ File: ''
# www.blender.org
mtllib tripleScreen_large.mtl
o Cube.000_Cube.003
v 5.114027 1.384544 -2.079323
v 5.114027 1.384544 2.079323
v 5.114027 3.231835 2.079324
v 2.079323 1.384543 5.114027
v -2.079323 1.384543 5.114027
v -2.079323 3.231834 5.114028
v -5.114027 1.384544 2.079323
v -5.114027 1.384544 -2.079323
v -5.114027 3.231835 -2.079323
v 5.114027 3.231835 -2.079323
v 2.079323 3.231834 5.114028
v -5.114027 3.231835 2.079324
vt 0.000000 -0.000000
vt 1.000000 0.000000
vt 1.000000 1.000000
vt 0.000000 -0.000000
vt 1.000000 0.000000
vt 1.000000 1.000000
vt 0.000000 -0.000000
vt 1.000000 0.000000
vt 1.000000 1.000000
vt -0.000000 1.000000
vt -0.000000 1.000000
vt -0.000000 1.000000
vn -1.0000 0.0000 0.0000
vn 0.0000 0.0000 -1.0000
vn 1.0000 0.0000 0.0000
usemtl Material.004
s 1
f 1/1/1 2/2/1 3/3/1
f 4/4/2 5/5/2 6/6/2
f 7/7/3 8/8/3 9/9/3
f 10/10/1 1/1/1 3/3/1
f 11/11/2 4/4/2 6/6/2
f 12/12/3 7/7/3 9/9/3
